# xmcd CD database file
#
# Track frame offsets:
#	183
#	24550
#	45890
#	60105
#	78360
#	91750
#	101760
#	115110
#	130320
#	148778
#	165443
#	182890
#	206213
#	224178
#	244350
#
# Disc length: 3537 seconds
#
# Revision: 1
# Processed by: cddbd v1.5.2PL0 Copyright (c) Steve Scherf et al.
# Submitted via: CDex 1.70beta2
#
DISCID=d10dcf0f
DTITLE=STS - Best of STS
DYEAR=1992
DGENRE=Rock
TTITLE0=Fürstenfeld 5:22 - 1984
TTITLE1=Großvater - 1985
TTITLE2=Gö, du bleibst heut nacht bei mir - 1985
TTITLE3=I hab di leben g'sehn - 1984
TTITLE4=Da kummt die Sunn - 1981
TTITLE5=Red ma uns des aus - 1987
TTITLE6=Wunder meiner Seligkeit - 1985
TTITLE7=Irgendwann bleib i dann dort - 1985
TTITLE8=Überdosis G'fühl - 1984
TTITLE9=Mach die Aug'n zu - 1987
TTITLE10=Sie wissen alles besser - 1984
TTITLE11=Herr Lohengrin - 1985
TTITLE12=Kalt und kälter - 1985
TTITLE13=Die Kinder san dran - 1987
TTITLE14=Das Feuer - 1990
EXTD=YEAR: 1992
EXTT0=
EXTT1=
EXTT2=
EXTT3=
EXTT4=
EXTT5=
EXTT6=
EXTT7=
EXTT8=
EXTT9=
EXTT10=
EXTT11=
EXTT12=
EXTT13=
EXTT14=
PLAYORDER=
